<svg xmlns="http://www.w3.org/2000/svg" viewBox="0 0 50 50"><defs><style>.cls-1{fill:#cfa338;}.cls-2{fill:none;stroke:#000;stroke-miterlimit:10;stroke-width:2px;}</style></defs><title>Book</title><g id="Layer_1_copy" data-name="Layer 1 copy"><path class="cls-1" d="M23.15,37c-3.08-3.35-8.36-5.26-14.64-4.85v-24c6.34-.69,11.08,1.4,14.64,5.42,3.56-4,8.3-6.11,14.64-5.42v24C31.87,31.69,26.23,33.7,23.15,37Z"/><path class="cls-1" d="M8.51,11.3A12.72,12.72,0,0,0,3,12.58V37.89c2.58-1.15,12.06-3.08,20.15-.16,8.09-2.92,17.43-1,20,.16V12.58a12,12,0,0,0-5.36-1.27L22.63,22.58Z"/></g><g id="Layer_1" data-name="Layer 1"><path class="cls-2" d="M25.15,39c-3.08-3.35-8.36-5.26-14.64-4.85v-24c6.34-.69,11.08,1.4,14.64,5.42,3.56-4,8.3-6.11,14.64-5.42v24C33.87,33.69,28.24,35.7,25.15,39Z"/><path class="cls-2" d="M10.51,13.3A12.72,12.72,0,0,0,5,14.58V39.89c2.58-1.15,12.06-3.08,20.15-.16,8.09-2.92,17.43-1,20,.16V14.58A12,12,0,0,0,39.8,13.3"/><line class="cls-2" x1="25.15" y1="15.66" x2="25.15" y2="39.73"/></g></svg>