<svg xmlns="http://www.w3.org/2000/svg" viewBox="0 0 50 50"><defs><style>.cls-1{fill:#cfa338;}.cls-2{fill:none;stroke:#000;stroke-miterlimit:10;stroke-width:2px;}</style></defs><title>Bruin</title><g id="Layer_1_copy" data-name="Layer 1 copy"><path class="cls-1" d="M47.33,15a34.69,34.69,0,0,0-6.56-1.33l-.06-2.14C37.89,10,33,9.2,30,8.92a17.26,17.26,0,0,0,0-2.66,3.74,3.74,0,0,0-1.9-.49,7.35,7.35,0,0,0-2.88,3.29c-6,.3-16.74,5.37-23.75,12.08A30.12,30.12,0,0,1,8,22.71a33.46,33.46,0,0,1,12.33-7.24l.06,0h0a.12.12,0,0,1,.06.23c-.15,0-5,1.61-10.18,7.91,1.35.57,2.68,1.22,4,1.92a21.86,21.86,0,0,1,9.67-5.64l.06,0h0a.12.12,0,0,1,.06.23c-.16,0-3.81,1-8.12,6.37,1.24.73,2.44,1.51,3.58,2.31A17.41,17.41,0,0,1,27,24.32a.12.12,0,0,1,.06.23,18.88,18.88,0,0,0-6.38,5.11c1.22.91,2.36,1.83,3.41,2.75a13.59,13.59,0,0,1,5.6-3.53.12.12,0,0,1,.14.08.12.12,0,0,1-.07.15,14.23,14.23,0,0,0-4.71,4.16,36.41,36.41,0,0,1,3.14,3.25c4.54-5.74,9.6-8.61,16.36-9.42l-.11-3-1.1.13c-1.86.29-4.36-.07-4.36-2.1,0-2.35,3.31-4.12,5.87-2.55C45.45,18.63,47.33,15,47.33,15Z"/></g><g id="Layer_1" data-name="Layer 1"><path class="cls-2" d="M48.33,17a34.69,34.69,0,0,0-6.56-1.33l-.06-2.14C38.89,12,34,11.2,31,10.92a17.26,17.26,0,0,0,0-2.66,3.74,3.74,0,0,0-1.9-.49,7.35,7.35,0,0,0-2.88,3.29c-6,.3-16.74,5.37-23.75,12.08A30.12,30.12,0,0,1,9,24.71a33.46,33.46,0,0,1,12.33-7.24l.06,0h0a.12.12,0,0,1,.06.23c-.15,0-5,1.61-10.18,7.91,1.35.57,2.68,1.22,4,1.92a21.86,21.86,0,0,1,9.67-5.64l.06,0h0a.12.12,0,0,1,.06.23c-.16,0-3.81,1-8.12,6.37,1.24.73,2.44,1.51,3.58,2.31A17.41,17.41,0,0,1,28,26.32a.12.12,0,0,1,.06.23,18.88,18.88,0,0,0-6.38,5.11c1.22.91,2.36,1.83,3.41,2.75a13.59,13.59,0,0,1,5.6-3.53.12.12,0,0,1,.14.08.12.12,0,0,1-.07.15,14.23,14.23,0,0,0-4.71,4.16,36.41,36.41,0,0,1,3.14,3.25c4.54-5.74,9.6-8.61,16.36-9.42l-.11-3-1.1.13c-1.86.29-4.36-.07-4.36-2.1,0-2.35,3.31-4.12,5.87-2.55C46.45,20.63,48.33,17,48.33,17Z"/></g></svg>