<svg xmlns="http://www.w3.org/2000/svg" viewBox="0 0 50 50"><defs><style>.cls-1{fill:#cfa338;}.cls-2{fill:none;stroke:#000;stroke-miterlimit:10;stroke-width:2px;}</style></defs><title>Football</title><g id="Layer_1_copy" data-name="Layer 1 copy"><path class="cls-1" d="M33.83,33.83C23.34,44.33,4,42,4,42S1.67,22.66,12.16,12.16,42,4,42,4,44.33,23.34,33.83,33.83Z"/></g><g id="Layer_1" data-name="Layer 1"><path class="cls-2" d="M35.84,35.84C25.34,46.33,6,44,6,44S3.67,24.66,14.16,14.16,44,6,44,6,46.33,25.34,35.84,35.84Z"/><line class="cls-2" x1="33.58" y1="16.42" x2="16.42" y2="33.58"/><line class="cls-2" x1="28.31" y1="15.08" x2="34.92" y2="21.69"/><line class="cls-2" x1="25" y1="18.39" x2="31.61" y2="25"/><line class="cls-2" x1="21.69" y1="21.69" x2="28.31" y2="28.31"/><line class="cls-2" x1="18.39" y1="25" x2="25" y2="31.61"/><line class="cls-2" x1="15.08" y1="28.31" x2="21.69" y2="34.92"/><line class="cls-2" x1="43.45" y1="19.69" x2="30.3" y2="6.54"/><line class="cls-2" x1="19.69" y1="43.45" x2="6.54" y2="30.3"/></g></svg>