<svg xmlns="http://www.w3.org/2000/svg" viewBox="0 0 50.01 35.56"><title>gradcap</title><polygon points="43.92 7.55 22 15.05 0.09 7.55 22 0.06 43.92 7.55" style="fill:#cfa338"/><path d="M33.07,11.26c1.65,1.81,3.88,6.3,3.88,9.49L22,25.86,7.05,20.75c0-3.19,2.08-8.14,3.89-9.49" style="fill:#cfa338"/><polyline points="41.45 26.86 39.62 34.56 43.51 34.56 41.45 26.86" style="fill:#cfa338"/><polygon points="46.92 8.55 25 16.05 3.09 8.55 25 1.06 46.92 8.55" style="fill:none;stroke:#000;stroke-miterlimit:10;stroke-width:2px"/><path d="M36.07,12.26c1.65,1.81,3.89,6.3,3.89,9.49L25,26.86l-15-5.11c0-3.19,2.09-8.14,3.89-9.49" style="fill:none;stroke:#000;stroke-miterlimit:10;stroke-width:2px"/><ellipse cx="25.01" cy="6.78" rx="2.01" ry="1.37" style="fill:none;stroke:#000;stroke-miterlimit:10;stroke-width:2px"/><polyline points="25 6.78 41.5 10.68 41.5 26.86 39.68 34.56 43.56 34.56 41.5 26.86" style="fill:none;stroke:#000;stroke-miterlimit:10;stroke-width:2px"/></svg>