<svg xmlns="http://www.w3.org/2000/svg" viewBox="0 0 50 50"><defs><style>.cls-1{fill:#cfa338;}.cls-2{fill:none;stroke:#000;stroke-miterlimit:10;stroke-width:2px;}</style></defs><title>Hat</title><g id="Layer_1_copy" data-name="Layer 1 copy"><path class="cls-1" d="M33.43,26.32,44,29.9c-6.33,8-13.23,6-24.29-1.83l8.12-.62Z"/><path class="cls-1" d="M17,9.94A16.37,16.37,0,0,0,1.65,20.77c2.54.41,3.47.81,3.48,6.45,8.86,1.35,21.62,1.11,28.3-.9A16.38,16.38,0,0,0,17,9.94Z"/></g><g id="Layer_1" data-name="Layer 1"><path class="cls-2" d="M3.67,27.32a16.38,16.38,0,0,1,32.76,0C28.53,29.7,12,29.6,3.67,27.32Z"/><ellipse class="cls-2" cx="20" cy="9.84" rx="1.95" ry="1.1"/><path class="cls-2" d="M36.43,27.32,47,30.9c-6.33,8-13.23,6-24.29-1.83"/><path class="cls-2" d="M22,10.94c1.42,3.43,1.8,12.46.76,18.13"/><path class="cls-2" d="M4.63,21.77c2.56.41,3.49.8,3.5,6.46"/></g></svg>