<svg xmlns="http://www.w3.org/2000/svg" viewBox="0 0 49.33 49.33"><title>profile</title><path d="M22.31,28.45c4.65,0,8.43-5.23,8.43-11.68,0-4.46-2.3-9.68-8.43-9.68s-8.43,5.22-8.43,9.68C13.88,23.22,17.66,28.45,22.31,28.45Z" style="fill:#cfa338"/><path d="M8.59,41.8c0-4.11,5.29-11.64,9.94-14.6l3.78-2.56,3.78,2.56c4.65,3,9.94,10.49,9.94,14.6,0,0-4.35,4.53-13.52,4.53S8.59,41.8,8.59,41.8Z" style="fill:#cfa338"/><circle cx="24.67" cy="24.67" r="23.67" style="fill:none;stroke:#000;stroke-miterlimit:10;stroke-width:2px"/><path d="M24.46,30.45c4.66,0,8.43-5.23,8.43-11.68,0-4.46-2.3-9.68-8.43-9.68S16,14.31,16,18.77C16,25.22,19.81,30.45,24.46,30.45Z" style="fill:none;stroke:#000;stroke-miterlimit:10;stroke-width:2px"/><path d="M20.68,29.2c-4.64,3-9.94,10.49-9.94,14.6" style="fill:none;stroke:#000;stroke-miterlimit:10;stroke-width:2px"/><path d="M28.24,29.2c4.65,3,10,10.49,10,14.6" style="fill:none;stroke:#000;stroke-miterlimit:10;stroke-width:2px"/></svg>