<svg xmlns="http://www.w3.org/2000/svg" viewBox="0 0 50 50"><defs><style>.cls-1{isolation:isolate;}.cls-2{fill:#cfa338;mix-blend-mode:multiply;}.cls-3{fill:none;stroke:#000;stroke-miterlimit:10;stroke-width:2px;}</style></defs><title>Science-2</title><g class="cls-1"><g id="Layer_1_copy" data-name="Layer 1 copy"><path class="cls-2" d="M22.58,34.23a11.21,11.21,0,0,1-22.41,0C6.21,34.82,18.61,38,22.58,34.23Z"/><path class="cls-2" d="M40.42,23.87l1.29,2.49L47.8,38.12a2.4,2.4,0,0,1-2.13,3.5H18.75a2.4,2.4,0,0,1-2.13-3.5L22.75,26.3,24,23.91C30,26.8,33.48,23,40.42,23.87Z"/></g><g id="Layer_1" data-name="Layer 1"><path class="cls-3" d="M11.13,18.11H10.5a1.05,1.05,0,0,1-1.05-1.05h0A1.05,1.05,0,0,1,10.5,16H17A1.05,1.05,0,0,1,18,17.06h0A1.05,1.05,0,0,1,17,18.11h-.62v6.22a11.21,11.21,0,1,1-5.24,0Z"/><path class="cls-3" d="M28.93,6.69V18.36L17.08,41.23a2.33,2.33,0,0,0,2.07,3.39H45.28a2.33,2.33,0,0,0,2.07-3.39L35.51,18.37l0-11.68h.78a1.32,1.32,0,0,0,1.32-1.32h0a1.32,1.32,0,0,0-1.32-1.32H28.15a1.32,1.32,0,0,0-1.32,1.32h0a1.32,1.32,0,0,0,1.32,1.32Z"/></g></g></svg>