<svg xmlns="http://www.w3.org/2000/svg" viewBox="0 0 50 50"><defs><style>.cls-1{fill:#cfa338;}.cls-2{fill:none;stroke:#000;stroke-miterlimit:10;stroke-width:2px;}</style></defs><title>T-shirt</title><g id="Layer_1_copy" data-name="Layer 1 copy"><path class="cls-1" d="M15.14,5.07C9.85,6.91,8.35,8.81,4.3,12.65,2,14.79,1,15.84,1,15.84l6.28,5.69,3.08-3.06V42.93H33.64V18.47l3.08,3.06L43,15.84s-1-1-3.3-3.19c-4-3.84-5.55-5.74-10.84-7.58,0,0-.35,6.19-6.85,6.19S15.14,5.07,15.14,5.07Z"/></g><g id="Layer_1" data-name="Layer 1"><path class="cls-2" d="M18.15,6.07c-5.29,1.84-6.8,3.74-10.84,7.58C5,15.79,4,16.84,4,16.84l6.28,5.69,3.08-3.06V43.93H36.64V19.47l3.08,3.06L46,16.84s-1-1-3.3-3.19c-4-3.84-5.55-5.74-10.84-7.58,0,0-.35,6.19-6.85,6.19S18.15,6.07,18.15,6.07Z"/></g></svg>